<svg width="581" height="372" viewBox="0 0 581 372" fill="none" xmlns="http://www.w3.org/2000/svg">
<g clip-path="url(#clip0_6377_56555)">
<g clip-path="url(#clip1_6377_56555)">
<g clip-path="url(#clip2_6377_56555)">
<path d="M511.201 77.2256H183.535C179.675 77.2256 176.545 80.3554 176.545 84.2161V301.047C176.545 304.908 179.675 308.037 183.535 308.037H511.201C515.062 308.037 518.192 304.908 518.192 301.047V84.2161C518.192 80.3554 515.062 77.2256 511.201 77.2256Z" fill="black" stroke="black" stroke-width="0.881533" stroke-miterlimit="10"/>
<path d="M511.14 67.9512H183.597C179.702 67.9512 176.545 71.1086 176.545 75.0034V291.711C176.545 295.606 179.702 298.763 183.597 298.763H511.14C515.034 298.763 518.192 295.606 518.192 291.711V75.0034C518.192 71.1086 515.034 67.9512 511.14 67.9512Z" fill="#FFE212" stroke="black" stroke-width="0.881533" stroke-miterlimit="10"/>
<path d="M518.386 93.6309H176.439" stroke="black" stroke-width="0.881533" stroke-miterlimit="10"/>
<path d="M190.173 86.9491C193.24 86.9491 195.726 84.4627 195.726 81.3955C195.726 78.3283 193.24 75.8418 190.173 75.8418C187.106 75.8418 184.619 78.3283 184.619 81.3955C184.619 84.4627 187.106 86.9491 190.173 86.9491Z" fill="white"/>
<path d="M206.913 86.9491C209.98 86.9491 212.467 84.4627 212.467 81.3955C212.467 78.3283 209.98 75.8418 206.913 75.8418C203.846 75.8418 201.359 78.3283 201.359 81.3955C201.359 84.4627 203.846 86.9491 206.913 86.9491Z" fill="white"/>
<path d="M223.645 86.9491C226.713 86.9491 229.199 84.4627 229.199 81.3955C229.199 78.3283 226.713 75.8418 223.645 75.8418C220.578 75.8418 218.092 78.3283 218.092 81.3955C218.092 84.4627 220.578 86.9491 223.645 86.9491Z" fill="white"/>
<path d="M128.113 300.756V349.099" stroke="white" stroke-width="0.881533" stroke-miterlimit="10"/>
<path d="M126.007 297.485L114.75 286.008L120.163 268.686L131.57 279.669L126.007 297.485Z" fill="black" stroke="black" stroke-width="0.881533" stroke-linejoin="round"/>
<path d="M126.043 297.493L141.831 294.461L147.235 277.139L131.605 279.677L126.043 297.493Z" fill="white" stroke="black" stroke-width="0.881533" stroke-linejoin="round"/>
<path d="M135.73 266.341L120.162 268.686L131.604 279.678L147.234 277.14L135.73 266.341Z" fill="white" stroke="black" stroke-width="0.881533" stroke-linejoin="round"/>
<path d="M137.625 127.852L149.103 117.538L160.166 127.852" stroke="white" stroke-width="0.881533" stroke-miterlimit="10"/>
<path d="M116.256 77.314L127.733 66.9912L138.805 77.314" stroke="white" stroke-width="0.881533" stroke-miterlimit="10"/>
<path d="M279.058 275.897C279.056 279.811 277.499 283.565 274.731 286.332C271.962 289.099 268.207 290.653 264.293 290.653H176.545V261.122H264.293C266.233 261.121 268.154 261.502 269.947 262.245C271.739 262.987 273.368 264.075 274.739 265.447C276.111 266.82 277.198 268.449 277.939 270.242C278.68 272.035 279.061 273.956 279.058 275.897V275.897Z" fill="black" stroke="black" stroke-width="0.881533" stroke-miterlimit="10"/>
<path d="M148.469 106.086V27.6738C148.471 23.6751 150.061 19.8409 152.89 17.0142C155.718 14.1875 159.553 12.5996 163.552 12.5996H269.248C273.246 12.5996 277.081 14.1875 279.91 17.0142C282.738 19.8409 284.328 23.6751 284.331 27.6738V34.206" stroke="white" stroke-width="0.881533" stroke-miterlimit="10" stroke-dasharray="1.76 1.76"/>
<path d="M148.469 193.957V132.188" stroke="white" stroke-width="0.881533" stroke-miterlimit="10" stroke-dasharray="1.76 1.76"/>
<path d="M127.531 140.696V78.918" stroke="white" stroke-width="0.881533" stroke-miterlimit="10" stroke-dasharray="1.76 1.76"/>
<path d="M482.782 138.889H359.059V229.352H482.782V138.889Z" fill="white"/>
<path d="M335.678 138.889H211.955V229.352H335.678V138.889Z" fill="white"/>
<path d="M220.842 162.708H327.833" stroke="#FFE212" stroke-width="0.881533" stroke-miterlimit="10"/>
<path d="M220.842 179.078H327.833" stroke="#FFE212" stroke-width="0.881533" stroke-miterlimit="10"/>
<path d="M220.842 195.447H327.833" stroke="#FFE212" stroke-width="0.881533" stroke-miterlimit="10"/>
<path d="M220.842 211.818H327.833" stroke="#FFE212" stroke-width="0.881533" stroke-miterlimit="10"/>
<path d="M220.842 209.905L232.522 208.574L238.94 209.614L245.313 207.013L250.444 209.402L268.083 203.011L271.909 206.308L286.798 194.452L290.007 195.774L297.227 182.956L321.292 153.011" stroke="#FF9F10" stroke-width="0.881533" stroke-miterlimit="10"/>
<path d="M426.794 159.534H371.601C371.042 159.534 370.506 159.756 370.111 160.151C369.716 160.546 369.494 161.082 369.494 161.641V161.641C369.493 161.918 369.547 162.193 369.652 162.45C369.757 162.707 369.912 162.94 370.108 163.137C370.304 163.333 370.537 163.489 370.793 163.596C371.049 163.702 371.324 163.757 371.601 163.757H426.794C427.355 163.757 427.893 163.534 428.29 163.137C428.687 162.74 428.909 162.202 428.909 161.641V161.641C428.907 161.081 428.683 160.546 428.287 160.151C427.89 159.756 427.353 159.534 426.794 159.534V159.534Z" fill="#FFE212"/>
<path d="M466.057 159.534H440.025C439.466 159.534 438.93 159.756 438.535 160.151C438.14 160.546 437.918 161.082 437.918 161.641V161.641C437.917 161.918 437.97 162.193 438.076 162.45C438.181 162.707 438.336 162.94 438.532 163.137C438.728 163.333 438.96 163.489 439.217 163.596C439.473 163.702 439.747 163.757 440.025 163.757H466.057C466.335 163.758 466.61 163.704 466.868 163.598C467.125 163.492 467.358 163.336 467.555 163.14C467.752 162.943 467.908 162.709 468.014 162.452C468.119 162.195 468.173 161.919 468.172 161.641V161.641C468.172 161.364 468.117 161.089 468.011 160.833C467.905 160.577 467.749 160.344 467.552 160.148C467.355 159.952 467.122 159.797 466.865 159.692C466.609 159.587 466.334 159.533 466.057 159.534V159.534Z" fill="#FFE212"/>
<path d="M466.058 192.636H455.154C454.876 192.636 454.602 192.691 454.345 192.797C454.089 192.903 453.857 193.059 453.661 193.256C453.465 193.453 453.31 193.686 453.205 193.942C453.099 194.199 453.046 194.474 453.047 194.751V194.751C453.047 195.31 453.269 195.846 453.664 196.241C454.059 196.636 454.595 196.858 455.154 196.858H466.058C466.336 196.859 466.611 196.806 466.867 196.7C467.124 196.595 467.357 196.44 467.554 196.244C467.75 196.049 467.906 195.816 468.013 195.56C468.119 195.304 468.174 195.029 468.174 194.751V194.751C468.175 194.473 468.121 194.198 468.015 193.94C467.909 193.683 467.754 193.45 467.557 193.253C467.36 193.056 467.127 192.9 466.869 192.794C466.612 192.689 466.336 192.635 466.058 192.636V192.636Z" fill="#FFE212"/>
<path d="M397.633 176.089H371.601C371.041 176.091 370.506 176.315 370.111 176.712C369.716 177.108 369.494 177.645 369.494 178.205V178.205C369.494 178.764 369.716 179.301 370.111 179.697C370.506 180.094 371.041 180.318 371.601 180.32H397.633C398.194 180.32 398.732 180.097 399.129 179.701C399.525 179.304 399.748 178.766 399.748 178.205V178.205C399.748 177.643 399.525 177.105 399.129 176.709C398.732 176.312 398.194 176.089 397.633 176.089V176.089Z" fill="#FFE212"/>
<path d="M466.719 176.089H410.045C409.485 176.091 408.948 176.315 408.552 176.711C408.156 177.107 407.932 177.644 407.93 178.205V178.205C407.932 178.765 408.156 179.302 408.552 179.698C408.948 180.094 409.485 180.318 410.045 180.32H466.719C467.28 180.32 467.818 180.097 468.215 179.701C468.612 179.304 468.835 178.766 468.835 178.205V178.205C468.835 177.643 468.612 177.105 468.215 176.709C467.818 176.312 467.28 176.089 466.719 176.089V176.089Z" fill="#FFE212"/>
<path d="M445.438 192.636H371.601C371.324 192.636 371.049 192.691 370.793 192.797C370.537 192.903 370.304 193.059 370.108 193.256C369.912 193.453 369.757 193.686 369.652 193.942C369.547 194.199 369.493 194.474 369.494 194.751V194.751C369.494 195.31 369.716 195.846 370.111 196.241C370.506 196.636 371.042 196.858 371.601 196.858H445.438C445.998 196.858 446.535 196.637 446.931 196.242C447.328 195.847 447.552 195.311 447.554 194.751V194.751C447.554 194.19 447.331 193.652 446.934 193.255C446.537 192.859 445.999 192.636 445.438 192.636V192.636Z" fill="#FFE212"/>
<path d="M409.807 208.944H371.601C371.042 208.944 370.506 209.166 370.111 209.561C369.716 209.957 369.494 210.492 369.494 211.051V211.051C369.493 211.329 369.547 211.604 369.652 211.86C369.757 212.117 369.912 212.35 370.108 212.547C370.304 212.743 370.537 212.899 370.793 213.006C371.049 213.112 371.324 213.167 371.601 213.167H409.807C410.368 213.167 410.906 212.944 411.303 212.547C411.699 212.15 411.922 211.612 411.922 211.051V211.051C411.92 210.492 411.696 209.956 411.3 209.561C410.903 209.166 410.366 208.944 409.807 208.944V208.944Z" fill="#FFE212"/>
<path d="M364.259 95.9133C353.213 117.52 328.68 135.582 305.769 140.263L284.374 161.658L284.85 140.263C266.717 135.6 260.644 117.52 271.68 95.9133C276.97 85.5288 285.406 75.973 295.261 68.3213H368.887C370.923 75.973 369.557 85.5288 364.259 95.9133Z" fill="black"/>
<path d="M336.19 86.0591C336.184 76.3058 333.427 66.752 328.237 58.4945C323.046 50.237 315.632 43.6105 306.846 39.3758C298.06 35.1411 288.258 33.4698 278.565 34.5537C268.873 35.6377 259.682 39.4331 252.048 45.5041C244.415 51.5751 238.648 59.6756 235.41 68.8757C232.172 78.0758 231.594 88.0025 233.742 97.5163C235.891 107.03 240.678 115.745 247.556 122.661C254.433 129.577 263.121 134.413 272.623 136.615L284.329 160.989L296.045 136.615C307.465 133.965 317.651 127.525 324.941 118.344C332.231 109.163 336.196 97.7826 336.19 86.0591Z" fill="#FF9F10" stroke="black" stroke-width="0.881533" stroke-linejoin="round"/>
<path d="M290.914 115.378C289.387 116.894 287.382 117.835 285.24 118.039C283.097 118.243 280.95 117.699 279.164 116.499C277.378 115.299 276.063 113.517 275.442 111.456C274.822 109.395 274.934 107.183 275.761 105.197C276.587 103.21 278.077 101.57 279.976 100.558C281.875 99.5453 284.066 99.2219 286.176 99.6428C288.287 100.064 290.186 101.203 291.552 102.866C292.917 104.53 293.664 106.615 293.665 108.767C293.681 109.998 293.445 111.219 292.972 112.356C292.499 113.493 291.799 114.521 290.914 115.378V115.378ZM280.195 94.2214L277.691 78.1423V55.3018H290.994V78.1423L288.349 94.2391L280.195 94.2214Z" fill="#001E2B"/>
<path d="M45.8477 232.27H251.077V237.109C251.077 241.626 249.283 245.958 246.089 249.152C242.895 252.346 238.563 254.14 234.046 254.14H62.8789C58.3619 254.14 54.03 252.346 50.836 249.152C47.642 245.958 45.8477 241.626 45.8477 237.109V232.27Z" fill="black" stroke="black" stroke-width="0.881533" stroke-miterlimit="10"/>
<path d="M236.321 217.513H60.6045C56.6908 217.513 52.9373 219.067 50.1698 221.835C47.4024 224.602 45.8477 228.356 45.8477 232.27C45.8477 236.183 47.4024 239.937 50.1698 242.704C52.9373 245.472 56.6908 247.026 60.6045 247.026H236.321C238.258 247.026 240.177 246.645 241.968 245.903C243.758 245.162 245.385 244.075 246.755 242.704C248.125 241.334 249.212 239.707 249.954 237.917C250.696 236.126 251.077 234.207 251.077 232.27C251.077 230.332 250.696 228.413 249.954 226.622C249.212 224.832 248.125 223.205 246.755 221.835C245.385 220.465 243.758 219.378 241.968 218.636C240.177 217.894 238.258 217.513 236.321 217.513V217.513Z" fill="#53E9F6" stroke="black" stroke-width="0.881533" stroke-miterlimit="10"/>
<path d="M61.8125 232.27H235.104" stroke="black" stroke-width="0.881533" stroke-miterlimit="10" stroke-dasharray="1.76 1.76"/>
<path d="M420.605 78.3184L424.079 79.4467L422.633 83.1403L420.605 78.3184Z" fill="black"/>
<path d="M421.383 79.0326L423.507 79.7202L422.626 81.9681L421.383 79.0326ZM419.822 77.6045L422.652 84.313L424.662 79.1736L419.822 77.6045V77.6045Z" fill="black"/>
<path d="M469.921 337.886L466.139 326.92L465.945 326.841C464.746 326.391 463.583 325.915 462.481 325.413C460.225 324.388 458.043 323.21 455.948 321.887L455.763 321.746L445.731 325.818L433.848 314.156L438.062 303.163L437.956 302.987C436.153 299.8 434.676 296.439 433.549 292.955L433.478 292.734L423.076 289.367L421.463 272.794L431.724 267.091V266.879C432.382 263.258 433.407 259.714 434.783 256.301L434.862 256.089L429.088 246.868L438.512 233.143L449.901 235.355L450.069 235.214C452.952 232.787 456.084 230.671 459.413 228.903L459.607 228.797L461.079 218.218L477.123 213.758L484.246 222.573H484.792C488.571 222.575 492.338 222.977 496.032 223.772H496.252L503.983 216.843L519.137 223.737L518.952 234.818L519.11 234.959C522.184 237.497 524.961 240.374 527.388 243.536L527.529 243.712L537.746 243.333L544.922 258.319L537.746 266.667V266.879C538.461 270.824 538.731 274.836 538.548 278.841V279.071L546.561 285.338L542.427 301.47L531.452 303.233L531.355 303.419C529.361 306.844 526.996 310.04 524.303 312.948L524.144 313.115L526.304 323.227L514.112 331.936L512.763 332.906L503.066 327.061L502.864 327.132C499.251 328.428 495.509 329.333 491.703 329.829H491.474L486.511 339.191L469.921 337.886ZM484.951 241.923C478.446 241.929 472.075 243.767 466.567 247.227C461.059 250.686 456.636 255.627 453.806 261.484C451.81 265.656 450.675 270.187 450.471 274.807C450.267 279.428 450.996 284.042 452.617 288.373C454.238 292.705 456.715 296.665 459.902 300.017C463.089 303.368 466.919 306.042 471.164 307.879C475.425 309.729 480.023 310.68 484.669 310.674C491.173 310.667 497.545 308.829 503.053 305.37C508.561 301.91 512.983 296.969 515.813 291.112C518.329 285.887 519.478 280.109 519.155 274.319C518.831 268.528 517.045 262.914 513.964 258.001C510.882 253.088 506.606 249.037 501.533 246.225C496.461 243.413 490.759 241.933 484.96 241.923H484.951Z" fill="black"/>
<path d="M476.963 214.287L483.768 222.679L484.033 223.014H484.791C488.54 223.013 492.278 223.412 495.942 224.204L496.383 224.301L496.718 223.993L504.061 217.372L505.313 217.937L517.469 223.446L518.721 224.01L518.545 234.589V235.021L518.871 235.285C521.917 237.807 524.673 240.66 527.087 243.792L527.36 244.153H527.818L537.515 243.801L540.46 249.972L544.4 258.276L537.515 266.209L537.233 266.527L537.313 266.95C538.016 270.863 538.283 274.843 538.106 278.815V279.265L538.467 279.547L546.093 285.497L544.55 291.492L542.09 301.056L531.574 302.731L531.159 302.802L530.948 303.163C528.99 306.561 526.66 309.731 524.001 312.613L523.693 312.948L523.79 313.398L525.844 322.998L518.404 328.287L513.943 331.54L512.824 332.342L503.523 326.753L503.162 326.541L502.774 326.683C499.184 327.952 495.47 328.839 491.693 329.327L491.244 329.389L491.032 329.794L486.307 338.698L484.941 338.583L470.29 337.446L466.666 326.938L466.525 326.55L466.138 326.4C464.956 325.96 463.801 325.519 462.7 324.99C460.467 323.96 458.305 322.782 456.229 321.464L455.85 321.217L455.427 321.393L445.88 325.263L440.873 320.353L434.402 314.006L438.44 303.481L438.59 303.093L438.378 302.731C436.574 299.572 435.097 296.238 433.97 292.779L433.829 292.356L433.397 292.215L423.48 289.006L423.136 285.48L421.929 273.041L431.767 267.585L432.128 267.382L432.207 266.967C432.853 263.389 433.863 259.885 435.222 256.513L435.39 256.098L435.152 255.719L429.651 246.904L433.062 241.923L438.74 233.646L449.591 235.761L450.006 235.841L450.332 235.576C453.194 233.17 456.299 231.07 459.597 229.308L459.993 229.097L460.055 228.656L461.474 218.607L470.387 216.129L476.963 214.305M484.667 311.132C491.254 311.125 497.706 309.264 503.284 305.76C508.862 302.257 513.341 297.254 516.209 291.324C518.23 287.096 519.377 282.504 519.581 277.822C519.784 273.141 519.041 268.466 517.395 264.079C515.748 259.691 513.233 255.681 510 252.289C506.766 248.897 502.882 246.193 498.578 244.339C494.276 242.476 489.637 241.518 484.949 241.526C478.362 241.534 471.909 243.397 466.331 246.902C460.753 250.407 456.274 255.412 453.408 261.343C450.864 266.637 449.703 272.488 450.033 278.352C450.363 284.216 452.173 289.9 455.294 294.875C458.416 299.85 462.747 303.952 467.884 306.8C473.02 309.647 478.794 311.147 484.667 311.159M477.28 213.317L470.157 215.301L460.681 217.945L459.2 228.533C455.844 230.318 452.686 232.451 449.776 234.897L438.316 232.685L432.313 241.438L428.575 246.886L434.385 256.16C432.989 259.602 431.955 263.18 431.299 266.835L420.959 272.574L422.264 285.603L422.669 289.737L433.133 293.123C434.268 296.633 435.753 300.021 437.567 303.234L433.327 314.306L440.212 321.05L445.624 326.339L455.762 322.257C457.872 323.579 460.069 324.757 462.338 325.783C463.493 326.303 464.657 326.78 465.864 327.22L469.681 338.275L484.853 339.491L471.541 338.495L486.774 339.676L491.764 330.27C495.602 329.765 499.376 328.852 503.021 327.546L512.824 333.426L517.557 330.05L514.41 332.298L518.933 329.063L526.866 323.412L524.689 313.248C527.385 310.314 529.75 307.091 531.741 303.639L542.787 301.876L545.431 291.747L547.124 285.189L539.032 278.886C539.213 274.848 538.941 270.803 538.221 266.826L545.493 258.452L541.253 249.584L538.062 242.91L527.739 243.29C525.289 240.104 522.488 237.203 519.391 234.642L519.576 223.481L517.813 222.679L505.683 217.161L503.92 216.35L496.154 223.402C492.422 222.578 488.613 222.152 484.791 222.133H484.456L477.28 213.317ZM484.667 310.286C480.082 310.29 475.545 309.35 471.339 307.527C464.162 304.42 458.277 298.932 454.679 291.988C451.081 285.045 449.989 277.072 451.589 269.417C453.189 261.762 457.383 254.894 463.461 249.973C469.539 245.052 477.129 242.38 484.949 242.408C489.534 242.408 494.07 243.347 498.278 245.167C505.45 248.277 511.329 253.766 514.923 260.707C518.517 267.649 519.606 275.618 518.007 283.269C516.407 290.92 512.217 297.785 506.143 302.706C500.069 307.626 492.484 310.301 484.667 310.277V310.286ZM525.218 324.567L518.897 329.08L517.522 330.068L525.218 324.567V324.567Z" fill="black"/>
<path d="M467.091 331.187L463.309 320.212L463.115 320.142C461.916 319.692 460.752 319.207 459.651 318.705C457.396 317.683 455.217 316.505 453.127 315.179L452.933 315.064L442.901 319.101L431.018 307.465L435.232 296.472L435.126 296.296C433.323 293.109 431.846 289.748 430.719 286.264L430.648 286.053L420.246 282.685L418.633 266.112L428.903 260.409L428.947 260.206C429.599 256.585 430.621 253.04 431.997 249.628L432.085 249.416L426.311 240.204L435.726 226.47L447.089 228.674L447.247 228.542C450.132 226.113 453.264 223.995 456.592 222.221L456.794 222.115L458.267 211.537L474.275 207.076L481.398 215.892H481.945C485.725 215.891 489.496 216.29 493.193 217.082L493.413 217.134L501.135 210.162L516.289 217.055L516.104 228.136L516.263 228.268C519.326 230.801 522.097 233.67 524.523 236.819L524.664 236.995L534.881 236.625L542.065 251.611L534.845 259.924V260.136C535.559 264.081 535.831 268.093 535.656 272.098V272.327L543.696 278.595L539.544 294.718L528.578 296.481L528.472 296.658C526.493 300.082 524.143 303.278 521.464 306.187L521.305 306.354L523.518 316.457L511.3 325.193L509.977 326.154L500.28 320.318L500.086 320.38C496.471 321.676 492.726 322.581 488.917 323.077H488.688L483.725 332.43L467.091 331.187ZM482.077 235.224C475.584 235.237 469.225 237.074 463.727 240.527C458.228 243.979 453.81 248.907 450.976 254.749C448.464 259.975 447.316 265.753 447.64 271.542C447.965 277.331 449.751 282.944 452.832 287.856C455.913 292.769 460.189 296.82 465.26 299.632C470.331 302.445 476.031 303.926 481.83 303.939C488.333 303.931 494.702 302.092 500.209 298.633C505.715 295.173 510.136 290.233 512.966 284.378C514.96 280.208 516.093 275.679 516.297 271.062C516.501 266.444 515.772 261.833 514.154 257.503C512.535 253.174 510.06 249.216 506.876 245.865C503.693 242.514 499.867 239.839 495.626 238C491.363 236.155 486.766 235.21 482.121 235.224H482.077Z" fill="white"/>
<path d="M474.134 207.578L480.939 215.962L481.203 216.288H481.962C485.71 216.288 489.448 216.684 493.113 217.469L493.554 217.566L493.889 217.266L501.232 210.672L502.484 211.237L514.614 216.755L515.865 217.328L515.68 227.906V228.303L516.006 228.576C519.054 231.107 521.807 233.972 524.214 237.118L524.487 237.48H524.945L534.642 237.136L537.586 243.307L541.571 251.646L534.686 259.58L534.404 259.897L534.483 260.312C535.192 264.224 535.458 268.205 535.277 272.177V272.635L535.638 272.909L543.272 278.859L541.509 285.691L539.261 294.427L528.78 296.084L528.366 296.155L528.154 296.516C526.185 299.884 523.849 303.024 521.19 305.878L520.881 306.213L520.978 306.663L523.032 316.262L521.913 317.065L511.07 324.813L509.95 325.607L500.65 320.027L500.289 319.806L499.901 319.947C496.312 321.222 492.597 322.108 488.82 322.592L488.37 322.654L488.159 323.05L483.443 331.954L482.067 331.848L467.416 330.702L463.793 320.203L463.661 319.806L463.264 319.665C462.083 319.216 460.928 318.74 459.835 318.246C457.599 317.218 455.434 316.04 453.356 314.72L452.977 314.482L452.554 314.649L443.007 318.519L438 313.609L431.529 307.271L435.567 296.692L435.716 296.305L435.514 295.943C433.708 292.788 432.231 289.456 431.106 285.999L430.965 285.567L430.533 285.426L420.616 282.218L420.272 278.691L419.064 266.262L428.929 260.92L429.29 260.717L429.369 260.312C430.016 256.717 431.033 253.199 432.402 249.812L432.569 249.389L432.331 249.01L426.822 240.195L430.242 235.214L435.919 226.945L446.788 229.052L447.203 229.132L447.52 228.858C450.384 226.451 453.492 224.35 456.794 222.591L457.191 222.379L457.252 221.938L458.654 211.88L467.566 209.403L474.134 207.569M481.847 304.406C488.433 304.396 494.884 302.533 500.46 299.028C506.037 295.523 510.514 290.519 513.379 284.589C515.924 279.296 517.086 273.445 516.756 267.581C516.426 261.718 514.616 256.034 511.494 251.06C508.372 246.085 504.041 241.984 498.904 239.137C493.767 236.291 487.993 234.792 482.12 234.782C475.534 234.79 469.082 236.652 463.504 240.155C457.926 243.658 453.447 248.661 450.579 254.59C448.556 258.815 447.407 263.405 447.2 268.085C446.994 272.765 447.733 277.438 449.375 281.825C451.018 286.212 453.528 290.223 456.757 293.616C459.985 297.01 463.866 299.717 468.166 301.576C472.482 303.455 477.14 304.421 481.847 304.415M474.451 206.564L467.328 208.548L457.861 211.193L456.38 221.824C453.02 223.608 449.859 225.741 446.947 228.188L435.487 225.976L429.484 234.729L425.79 240.177L431.582 249.46C430.195 252.905 429.161 256.481 428.497 260.135L418.156 265.874L419.426 278.885L419.822 283.02L430.295 286.405C431.43 289.921 432.921 293.312 434.747 296.525L430.498 307.588L437.382 314.341L442.804 319.63L452.889 315.575C454.999 316.897 457.196 318.075 459.465 319.101C460.62 319.621 461.792 320.106 462.991 320.538L466.808 331.592L482.032 332.774L468.756 331.742L483.972 332.941L488.935 323.509C492.773 323.006 496.546 322.096 500.192 320.794L509.994 326.673L514.728 323.288L511.581 325.536L522.424 317.787L514.728 323.288L524.011 316.659L521.877 306.504C524.576 303.571 526.941 300.348 528.93 296.895L539.975 295.132L542.373 285.841L544.277 278.453L536.185 272.151C536.367 268.11 536.095 264.062 535.374 260.082L542.646 251.708L538.406 242.848L535.215 236.166L524.936 236.537C522.483 233.356 519.683 230.458 516.588 227.898L516.782 216.746L515.019 215.935L502.889 210.417L501.126 209.615L493.351 216.667C489.625 215.867 485.825 215.465 482.015 215.468H481.68L474.504 206.653L474.451 206.564ZM481.847 303.533C477.259 303.533 472.72 302.594 468.509 300.774C461.338 297.664 455.459 292.175 451.865 285.234C448.271 278.292 447.181 270.323 448.781 262.672C450.38 255.021 454.571 248.156 460.644 243.235C466.718 238.315 474.304 235.641 482.12 235.664C486.7 235.662 491.23 236.601 495.431 238.423C502.602 241.533 508.481 247.021 512.075 253.961C515.669 260.902 516.759 268.87 515.161 276.52C513.562 284.171 509.374 291.036 503.302 295.958C497.229 300.879 489.645 303.554 481.829 303.533H481.847Z" fill="black"/>
<path d="M516.756 216.746L519.577 223.446L516.562 227.897L516.756 216.746Z" fill="black"/>
<path d="M425.773 240.177L428.603 246.885L430.163 245.766L425.773 240.177Z" fill="black"/>
<path d="M472.838 312.11L470.361 304.934L470.167 304.864C469.391 304.573 468.633 304.255 467.901 303.929C466.431 303.26 465.009 302.491 463.643 301.628L463.449 301.505L456.891 304.15L449.239 296.639L451.99 289.454L451.884 289.269C450.71 287.186 449.745 284.992 449.001 282.719L448.931 282.508L442.125 280.304L441.094 269.646L447.829 265.917V265.715C448.257 263.349 448.925 261.034 449.821 258.803L449.909 258.592L446.127 252.562L452.192 243.747L459.615 245.193L459.782 245.052C461.668 243.47 463.713 242.088 465.882 240.926L466.085 240.82L467.046 233.909L477.378 231.035L482.032 236.783H482.464C484.932 236.781 487.394 237.041 489.807 237.559L490.028 237.611L495.079 233.045L504.837 237.453L504.714 244.699L504.881 244.831C506.884 246.492 508.696 248.369 510.285 250.429L510.426 250.614L517.117 250.341L521.745 260.038L517.029 265.468V265.679C517.495 268.255 517.673 270.875 517.558 273.49V273.719L522.847 277.818L520.203 288.203L513.036 289.34L512.93 289.525C511.637 291.745 510.103 293.814 508.355 295.696L508.205 295.872L509.615 302.475L500.888 308.716L494.488 304.996L494.294 305.066C491.931 305.912 489.484 306.503 486.995 306.829H486.775L483.531 312.93L472.838 312.11ZM482.579 249.151C478.285 249.155 474.08 250.369 470.444 252.653C466.808 254.937 463.889 258.199 462.021 262.065C460.359 265.516 459.6 269.333 459.813 273.157C460.027 276.982 461.207 280.69 463.243 283.935C465.278 287.18 468.104 289.855 471.454 291.712C474.805 293.568 478.572 294.544 482.402 294.55C486.696 294.539 490.9 293.323 494.536 291.04C498.173 288.757 501.094 285.498 502.969 281.635C504.287 278.88 505.036 275.888 505.171 272.836C505.307 269.785 504.825 266.738 503.755 263.877C502.685 261.016 501.049 258.401 498.945 256.187C496.841 253.973 494.311 252.207 491.509 250.993C488.69 249.771 485.65 249.144 482.579 249.151V249.151Z" fill="black"/>
<path d="M477.236 231.512L481.573 236.872L481.838 237.198H482.481C484.917 237.197 487.346 237.454 489.727 237.965L490.168 238.062L490.503 237.762L495.175 233.548L495.81 233.839L503.744 237.453L504.378 237.744L504.264 244.488V244.911L504.59 245.176C506.569 246.816 508.358 248.673 509.923 250.712L510.205 251.073H510.655L516.826 250.853L518.677 254.705L521.207 259.994L516.799 265.045L516.588 265.327L516.667 265.751C517.126 268.294 517.301 270.881 517.187 273.464V273.922L517.54 274.196L522.388 277.977L522 279.485L519.858 287.798L513.185 288.864L512.771 288.926L512.559 289.296C511.281 291.512 509.765 293.581 508.037 295.467L507.728 295.802L507.825 296.243L509.13 302.352L508.557 302.757L501.452 307.844L500.879 308.249L494.946 304.723L494.585 304.512L494.197 304.653C491.864 305.49 489.45 306.081 486.995 306.416L486.545 306.477L486.325 306.874L483.327 312.542L482.622 312.481L473.207 311.749L470.898 305.049L470.766 304.653L470.378 304.512C469.602 304.221 468.853 303.912 468.139 303.63C466.686 302.97 465.281 302.21 463.934 301.356L463.546 301.118L463.131 301.285L457.049 303.753L453.902 300.668L449.803 296.648L452.377 289.931L452.527 289.543L452.324 289.182C451.158 287.127 450.204 284.959 449.477 282.711L449.335 282.279L448.904 282.138L442.539 279.987L442.327 277.854L441.56 269.92L447.837 266.394L448.198 266.191L448.278 265.777C448.696 263.441 449.355 261.154 450.243 258.954L450.411 258.531L450.173 258.152L446.647 252.563L448.798 249.46L452.412 244.171L459.341 245.511L459.755 245.59L460.081 245.317C461.945 243.754 463.966 242.389 466.111 241.244L466.508 241.032L466.569 240.592L467.451 234.192L473.102 232.614L477.227 231.468M482.393 294.938C486.767 294.94 491.054 293.711 494.763 291.391C498.471 289.071 501.452 285.755 503.365 281.821C505.058 278.302 505.831 274.411 505.612 270.512C505.394 266.613 504.19 262.834 502.113 259.526C500.037 256.219 497.156 253.492 493.74 251.601C490.323 249.709 486.483 248.715 482.578 248.71C478.2 248.715 473.911 249.953 470.204 252.282C466.496 254.612 463.52 257.938 461.615 261.881C459.922 265.399 459.149 269.29 459.368 273.189C459.586 277.088 460.79 280.868 462.867 284.175C464.943 287.482 467.824 290.209 471.24 292.101C474.657 293.992 478.497 294.987 482.402 294.991M477.553 230.507L472.881 231.829L466.666 233.592L465.697 240.565C463.497 241.735 461.429 243.136 459.526 244.744L452.024 243.289L448.084 249.028L445.624 252.607L449.441 258.689C448.524 260.946 447.845 263.292 447.414 265.689L440.635 269.453L441.463 277.995L441.728 280.701L448.595 282.923C449.337 285.23 450.315 287.454 451.513 289.561L448.71 296.763L453.223 301.171L456.749 304.653L463.37 302.008C464.754 302.882 466.197 303.66 467.689 304.335C468.447 304.679 469.205 304.996 469.981 305.287L472.476 312.533L482.464 313.309L473.754 312.63L483.742 313.406L487.021 307.235C489.535 306.907 492.008 306.316 494.399 305.472L500.835 309.325L503.938 307.112L501.91 308.523L509.024 303.445L503.973 307.05L510.064 302.696L508.654 296.058C510.428 294.138 511.983 292.027 513.291 289.763L520.537 288.609L522.82 279.732L523.358 277.66L518.069 273.526C518.184 270.869 518.004 268.208 517.531 265.592L522.3 260.1L519.523 254.282L517.425 249.874L510.69 250.121C509.079 248.031 507.24 246.126 505.207 244.444L505.339 237.127L504.167 236.598L496.233 232.984L495.061 232.446L489.912 237.118C487.47 236.596 484.979 236.333 482.481 236.334H482.261L477.553 230.524V230.507ZM482.402 294.109C479.394 294.11 476.418 293.495 473.657 292.302C468.955 290.261 465.101 286.661 462.745 282.109C460.388 277.557 459.674 272.331 460.722 267.314C461.77 262.296 464.516 257.793 468.498 254.565C472.479 251.337 477.452 249.58 482.578 249.592C485.583 249.577 488.559 250.177 491.323 251.355C496.025 253.396 499.879 256.996 502.235 261.549C504.592 266.101 505.306 271.326 504.258 276.344C503.21 281.361 500.464 285.864 496.482 289.092C492.501 292.321 487.528 294.077 482.402 294.065V294.109Z" fill="black"/>
<path d="M470.978 307.711L468.51 300.536L468.316 300.465C467.532 300.174 466.773 299.857 466.051 299.531C464.579 298.86 463.153 298.091 461.784 297.23L461.599 297.106L455.04 299.751L447.38 292.24L450.139 285.056L450.033 284.871C448.852 282.791 447.886 280.597 447.151 278.321L447.08 278.109L440.275 275.906L439.234 265.23L445.952 261.51V261.299C446.377 258.932 447.047 256.615 447.953 254.387L448.032 254.176L444.303 248.164L450.368 239.348L457.791 240.794L457.949 240.653C459.837 239.07 461.884 237.687 464.058 236.528L464.252 236.422L465.213 229.511L475.545 226.637L480.199 232.384H480.631C483.099 232.382 485.561 232.642 487.974 233.16L488.195 233.213L493.246 228.655L503.005 233.063L502.89 240.309L503.049 240.442C505.053 242.102 506.869 243.98 508.461 246.039L508.593 246.224L515.275 245.978L519.903 255.674L515.178 261.105L515.223 261.316C515.691 263.892 515.865 266.512 515.743 269.127V269.356L521.032 273.455L518.352 283.839L511.185 284.977L511.079 285.162C509.785 287.396 508.251 289.483 506.504 291.385L506.345 291.553L507.765 298.164L498.958 304.379L492.629 300.589L492.435 300.659C490.075 301.505 487.631 302.096 485.145 302.422H484.915L481.671 308.522L470.978 307.711ZM480.728 244.752C476.436 244.764 472.234 245.981 468.599 248.264C464.965 250.547 462.044 253.805 460.171 257.667C458.852 260.422 458.103 263.414 457.968 266.466C457.833 269.517 458.315 272.564 459.384 275.425C460.454 278.286 462.09 280.901 464.195 283.115C466.299 285.329 468.828 287.095 471.631 288.309C474.443 289.529 477.477 290.156 480.543 290.151C484.838 290.147 489.045 288.934 492.682 286.65C496.319 284.366 499.24 281.104 501.109 277.237C502.771 273.785 503.531 269.969 503.317 266.144C503.104 262.32 501.924 258.612 499.888 255.367C497.852 252.122 495.027 249.447 491.676 247.59C488.325 245.734 484.559 244.757 480.728 244.752V244.752Z" fill="white"/>
<path d="M475.378 227.113L479.715 232.473L479.988 232.799H480.623C483.061 232.799 485.493 233.056 487.878 233.566L488.319 233.663L488.654 233.363L493.317 229.185L493.96 229.476L501.894 233.09L502.538 233.381L502.485 240.09V240.513L502.811 240.777C504.79 242.42 506.582 244.276 508.153 246.313L508.426 246.675H508.885L515.055 246.454L516.898 250.306L519.428 255.596L515.02 260.647L514.747 260.964L514.817 261.387C515.285 263.93 515.46 266.518 515.338 269.101V269.559L515.699 269.832L520.547 273.614L520.115 275.113L517.973 283.426L511.3 284.492L510.886 284.554L510.683 284.924C509.405 287.14 507.888 289.209 506.161 291.095L505.852 291.43L505.949 291.871L507.254 297.98L502.308 301.506L501.286 302.246L498.959 303.851L493.026 300.325L492.673 300.113L492.277 300.254C489.944 301.092 487.53 301.683 485.075 302.017L484.625 302.079L484.413 302.476L481.407 308.144L480.711 308.082L471.296 307.35L468.987 300.589L468.845 300.201L468.458 300.051C467.691 299.76 466.933 299.452 466.227 299.17C464.771 298.511 463.363 297.751 462.014 296.896L461.635 296.657L461.211 296.825L455.129 299.293L451.991 296.208L447.891 292.188L450.474 285.427L450.624 285.039L450.413 284.677C449.251 282.621 448.297 280.453 447.565 278.207L447.433 277.775L447.001 277.634L440.689 275.589L440.478 273.456L439.702 265.522L445.979 261.996L446.349 261.793L446.419 261.379C446.845 259.043 447.507 256.757 448.394 254.555L448.561 254.132L448.323 253.753L444.797 248.164L446.948 245.053L450.554 239.763L457.527 241.156L457.941 241.236L458.258 240.962C460.125 239.404 462.145 238.039 464.288 236.89L464.685 236.678L464.746 236.237L465.628 229.837L471.261 228.303L475.378 227.157M480.543 290.628C484.922 290.624 489.211 289.387 492.919 287.057C496.627 284.728 499.603 281.401 501.506 277.458C503.202 273.94 503.977 270.049 503.76 266.15C503.542 262.251 502.34 258.471 500.264 255.163C498.188 251.855 495.307 249.128 491.891 247.236C488.474 245.345 484.634 244.351 480.729 244.347C476.354 244.348 472.067 245.58 468.36 247.903C464.653 250.226 461.674 253.545 459.766 257.482C458.073 261 457.299 264.89 457.518 268.788C457.736 272.687 458.939 276.466 461.015 279.773C463.09 283.08 465.97 285.807 469.385 287.699C472.8 289.591 476.639 290.587 480.543 290.593M475.704 226.108L471.023 227.422L464.808 229.185L463.838 236.158C461.643 237.335 459.575 238.735 457.668 240.336L450.157 238.882L446.217 244.621L443.766 248.2L447.574 254.282C446.664 256.54 445.988 258.886 445.555 261.282L438.768 265.046L439.596 273.588L439.861 276.294L446.728 278.516C447.477 280.821 448.457 283.045 449.655 285.153L446.869 292.409L451.382 296.816L454.908 300.342L461.529 297.698C462.911 298.57 464.351 299.348 465.839 300.025C466.598 300.369 467.365 300.686 468.131 300.977L470.635 308.223L480.623 308.999L471.913 308.32L481.901 309.096L485.171 302.925C487.69 302.605 490.167 302.014 492.559 301.162L498.985 305.014L501.744 303.049L502.767 302.317L508.18 298.447L506.76 291.774C508.529 289.852 510.081 287.741 511.388 285.48L518.634 284.325L520.997 275.333L521.526 273.27L516.237 269.127C516.359 266.471 516.182 263.81 515.708 261.193L520.477 255.701L517.691 249.883L515.602 245.476L508.858 245.723C507.244 243.648 505.402 241.761 503.366 240.098L503.49 232.782L502.326 232.253L494.392 228.638L493.229 228.101L488.063 232.711C485.617 232.189 483.124 231.926 480.623 231.927H480.446L475.748 226.117L475.704 226.108ZM480.543 289.711C476.788 289.706 473.095 288.748 469.81 286.928C466.524 285.108 463.754 282.485 461.758 279.303C459.762 276.122 458.605 272.487 458.395 268.737C458.186 264.987 458.93 261.245 460.559 257.861C462.386 254.064 465.249 250.86 468.817 248.619C472.386 246.378 476.515 245.19 480.729 245.194C483.733 245.179 486.709 245.779 489.473 246.957C494.176 248.998 498.031 252.599 500.387 257.152C502.743 261.705 503.457 266.932 502.408 271.95C501.358 276.968 498.611 281.47 494.628 284.698C490.644 287.926 485.67 289.681 480.543 289.667V289.711Z" fill="black"/>
<path d="M503.444 232.781L505.304 237.18L503.32 240.098L503.444 232.781Z" fill="black"/>
<path d="M431.758 309.43L434.896 312.506L433.512 313.582L431.758 309.43Z" fill="black"/>
<path d="M433.019 311.29L434.227 312.472L433.698 312.886L433.019 311.29ZM430.498 307.579L433.328 314.288L435.558 312.525L430.498 307.562V307.579Z" fill="black"/>
<path d="M443.766 248.155L445.617 252.554L446.093 251.867L443.766 248.155Z" fill="black"/>
<path d="M443.766 248.155L445.617 252.554L446.093 251.867L443.766 248.155Z" fill="black"/>
<path d="M439.861 276.249L441.721 280.648L444.11 277.624L439.861 276.249Z" fill="black"/>
<path d="M446.867 292.364L448.718 296.763L450.023 295.458L446.867 292.364Z" fill="black"/>
<path d="M470.66 308.126L472.511 312.525L473.596 308.355L470.66 308.126Z" fill="black"/>
<path d="M521.479 273.262L523.339 277.661L520.51 277.017L521.479 273.262Z" fill="black"/>
<path d="M520.414 255.728L522.265 260.126H518.748L520.414 255.728Z" fill="black"/>
<path d="M544.25 278.453L547.08 285.162L544.656 294.568L540.918 291.376L544.25 278.453Z" fill="black"/>
<path d="M542.619 251.717L545.449 258.425H539.102L542.619 251.717Z" fill="black"/>
<path d="M467.461 332.095L470.141 332.306L469.409 336.732L467.461 332.095Z" fill="black"/>
<path d="M468.149 332.588L469.63 332.711L469.224 335.153L468.149 332.588ZM466.773 331.601L469.603 338.309L470.661 331.9L466.773 331.601V331.601Z" fill="black"/>
</g>
</g>
</g>
<defs>
<clipPath id="clip0_6377_56555">
<rect width="581" height="372" fill="white"/>
</clipPath>
<clipPath id="clip1_6377_56555">
<rect width="506" height="336.746" fill="white" transform="translate(41 12.627)"/>
</clipPath>
<clipPath id="clip2_6377_56555">
<rect width="501.592" height="375.533" fill="white" transform="translate(45.4082 1.16699)"/>
</clipPath>
</defs>
</svg>
